HIERARCHY
ROOT Hips
{
 OFFSET 0.000000 0.000000 0.000000
 CHANNELS 6 Xposition Yposition Zposition Yrotation Xrotation Zrotation
 JOINT Chest
 {
  OFFSET 0.000000 9.857222 0.000240
  CHANNELS 3 Yrotation Xrotation Zrotation
  JOINT Chest2
  {
   OFFSET 0.000000 10.876940 -0.000436
   CHANNELS 3 Yrotation Xrotation Zrotation
   JOINT Chest3
   {
    OFFSET 0.000000 9.827798 0.000000
    CHANNELS 3 Yrotation Xrotation Zrotation
    JOINT Chest4
    {
     OFFSET 0.000000 9.827798 0.000000
     CHANNELS 3 Yrotation Xrotation Zrotation
     JOINT Neck
     {
      OFFSET 0.000000 13.831992 0.000000
      CHANNELS 3 Yrotation Xrotation Zrotation
      JOINT Head
      {
       OFFSET 0.000000 9.147643 -0.001036
       CHANNELS 3 Yrotation Xrotation Zrotation
       End Site
       {
        OFFSET 0.000000 17.515799 -0.000541
       }
      }
     }
     JOINT RightCollar
     {
      OFFSET -3.001579 7.717577 0.000000
      CHANNELS 3 Yrotation Xrotation Zrotation
      JOINT RightShoulder
      {
       OFFSET -14.002642 0.000000 0.000000
       CHANNELS 3 Yrotation Xrotation Zrotation
       JOINT RightElbow
       {
        OFFSET -30.053852 0.000000 0.000000
        CHANNELS 3 Yrotation Xrotation Zrotation
        JOINT RightWrist
        {
         OFFSET -24.564923 0.000000 -0.000000
         CHANNELS 3 Yrotation Xrotation Zrotation
         End Site
         {
          OFFSET -18.334355 0.000000 0.000000
         }
        }
       }
      }
     }
     JOINT LeftCollar
     {
      OFFSET 3.001579 7.717577 0.000000
      CHANNELS 3 Yrotation Xrotation Zrotation
      JOINT LeftShoulder
      {
       OFFSET 14.002642 0.000000 0.000000
       CHANNELS 3 Yrotation Xrotation Zrotation
       JOINT LeftElbow
       {
        OFFSET 30.053852 0.000000 0.000000
        CHANNELS 3 Yrotation Xrotation Zrotation
        JOINT LeftWrist
        {
         OFFSET 24.564923 0.000000 -0.000000
         CHANNELS 3 Yrotation Xrotation Zrotation
         End Site
         {
          OFFSET 18.334355 0.000000 0.000000
         }
        }
       }
      }
     }
    }
   }
  }
 }
 JOINT RightHip
 {
  OFFSET -8.003235 -0.001175 -0.000120
  CHANNELS 3 Yrotation Xrotation Zrotation
  JOINT RightKnee
  {
   OFFSET 0.000000 -41.759727 0.000113
   CHANNELS 3 Yrotation Xrotation Zrotation
   JOINT RightAnkle
   {
    OFFSET 0.000000 -40.728748 0.000159
    CHANNELS 3 Yrotation Xrotation Zrotation
    JOINT RightToe
    {
     OFFSET 0.000000 -6.515296 14.732841
     CHANNELS 3 Yrotation Xrotation Zrotation
     End Site
     {
      OFFSET 0.000000 -1.502839 6.412115
     }
    }
   }
  }
 }
 JOINT LeftHip
 {
  OFFSET 8.003235 -0.001175 -0.000120
  CHANNELS 3 Yrotation Xrotation Zrotation
  JOINT LeftKnee
  {
   OFFSET 0.000000 -41.759727 0.000113
   CHANNELS 3 Yrotation Xrotation Zrotation
   JOINT LeftAnkle
   {
    OFFSET 0.000000 -40.728748 0.000159
    CHANNELS 3 Yrotation Xrotation Zrotation
    JOINT LeftToe
    {
     OFFSET 0.000000 -6.515296 14.732841
     CHANNELS 3 Yrotation Xrotation Zrotation
     End Site
     {
      OFFSET 0.000000 -1.502839 6.412115
     }
    }
   }
  }
 }
}
MOTION
Frames: 15
Frame Time: 0.016667
18.783896 90.375239 17.210584 -31.946576 -8.411715 -0.090442 0.828173 1.557896 0.913160 0.158639 0.792506 0.402277 0.158639 0.792506 0.402277 0.118456 0.594485 0.301497 -2.506796 29.506770 -0.825159 -4.294047 18.615449 -1.001667 6.584318 7.258999 7.730711 -18.217327 -29.207222 42.766858 74.067458 -52.194497 -55.325096 7.392890 -10.883657 5.897172 -9.587893 9.672513 -11.003544 20.441739 -8.616721 -41.418729 -137.846215 -39.980035 141.261823 -0.572764 -1.115846 0.513308 -2.079931 19.250681 -5.661448 -1.932976 -3.928505 5.029450 -0.794822 -6.167361 0.968635 -0.786488 0.041541 -0.368425 -0.405827 9.197623 2.038358 -0.292896 3.633333 -2.512765 1.298481 -4.373577 0.138305 0.418417 0.085346 0.168749
18.773514 90.379454 17.190130 -31.701406 -8.283131 -0.033063 0.696609 1.803790 0.816072 0.110202 0.886810 0.362566 0.110202 0.886810 0.362566 0.082124 0.665173 0.271759 -2.441560 29.289736 -0.808106 -4.180492 18.212226 -0.977132 6.383764 6.901587 7.294442 -19.481971 -31.431809 39.800890 75.012160 -52.786404 -55.335537 7.260322 -11.036093 6.145990 -9.318683 9.146784 -10.269367 21.428071 -9.972163 -38.883680 -137.737453 -38.345747 141.127199 -0.539713 -1.315452 0.333452 -2.317416 19.139062 -5.745749 -1.986762 -3.925761 5.048771 -0.747015 -6.181713 0.967749 -0.801652 0.031518 -0.378878 -0.543044 9.038066 1.972630 -0.326370 3.623459 -2.493414 1.255605 -4.316622 0.111215 0.424198 0.060375 0.174440
18.751641 90.377561 17.186220 -31.488641 -8.136339 0.007660 0.543733 2.019835 0.740071 0.056276 0.966048 0.334194 0.056276 0.966048 0.334194 0.041677 0.724567 0.250551 -2.372575 29.070976 -0.797140 -4.059222 17.805597 -0.964429 6.307337 6.777676 6.841536 -20.120130 -33.787301 36.659430 75.479050 -53.352911 -55.051806 7.073608 -11.132949 6.493243 -8.995230 8.933266 -9.637898 22.156317 -11.733339 -36.375250 -137.347021 -36.979706 140.760579 -0.508423 -1.353847 0.020062 -2.691961 19.027405 -5.851217 -1.935765 -3.965013 5.062829 -0.687849 -6.188798 0.968114 -0.806884 0.028946 -0.385770 -0.610696 8.875927 1.937933 -0.388091 3.617124 -2.475287 1.184523 -4.297867 0.084406 0.434322 0.054766 0.179227
18.760747 90.363799 17.167090 -31.630640 -7.673821 0.189999 0.682029 1.922258 0.572670 0.004015 1.028616 0.318743 0.004015 1.028616 0.318743 0.002475 0.771464 0.239044 -2.307808 28.844097 -0.790282 -3.944677 17.383846 -0.958391 6.265151 6.964716 6.282571 -20.241116 -36.215631 33.379296 74.925887 -53.852782 -53.742309 6.907514 -11.337218 6.744412 -8.668325 8.779641 -9.109658 22.895870 -13.834287 -33.902194 -136.364047 -36.333424 139.634346 -0.473363 -1.402062 -0.304432 -2.841957 18.542016 -6.207127 -1.792260 -4.020324 5.094882 -0.103788 -6.221809 1.275313 -1.369268 0.102549 -0.639473 -0.317843 8.411520 1.799861 -0.463195 3.601596 -2.450843 1.090958 -4.246704 0.058221 0.476384 0.013347 0.194485
18.731096 90.352014 17.192750 -31.479170 -7.495047 0.228316 0.504152 2.120112 0.484985 -0.035512 1.096746 0.298538 -0.035512 1.096746 0.298538 -0.027169 0.822543 0.223960 -2.236970 28.588335 -0.736216 -3.828549 16.909578 -0.869365 6.163314 6.584846 5.652361 -19.434988 -37.700534 29.877160 74.336362 -53.954393 -52.437111 6.717223 -11.564657 6.850532 -8.407994 8.301714 -8.538689 23.835627 -16.044087 -31.195551 -134.983833 -36.576393 137.378816 -0.581471 -1.359820 -0.061232 -3.204046 18.405733 -6.306821 -1.644995 -4.073503 5.097695 -0.149439 -6.243245 1.249495 -1.302702 0.114426 -0.609726 -0.341925 8.255590 1.743558 -0.553576 3.583908 -2.385495 1.115898 -4.279473 0.032849 0.441673 0.035879 0.175373
18.700744 90.339935 17.216144 -31.438818 -7.317583 0.256776 0.430499 2.291320 0.408851 -0.057557 1.177636 0.273634 -0.057557 1.177636 0.273634 -0.043694 0.883201 0.205329 -2.159281 28.298735 -0.633024 -3.710328 16.373559 -0.694001 6.065258 6.067040 5.036852 -17.432591 -38.212351 26.143955 74.828733 -53.699841 -52.621363 6.526890 -11.828123 6.940357 -8.291610 7.644438 -7.976897 24.201524 -17.687889 -28.141615 -133.519795 -36.724639 134.909553 -0.793676 -1.471577 0.613334 -3.340936 18.268422 -6.338357 -1.571507 -4.113394 5.090396 -0.204362 -6.286334 1.234079 -1.263519 0.146733 -0.592357 -0.277742 8.116827 1.680006 -0.612213 3.540301 -2.301687 1.131385 -4.304533 0.021940 0.401164 0.064468 0.153565
18.678634 90.332125 17.236435 -31.453097 -7.169582 0.267876 0.342126 2.485348 0.312065 -0.099460 1.280068 0.228581 -0.099460 1.280068 0.228581 -0.075071 0.960014 0.171637 -1.971042 27.961126 -0.457087 -3.411121 15.748697 -0.411065 6.103557 5.624650 4.522442 -14.590184 -37.989827 22.246089 76.647353 -53.343601 -54.469167 6.379831 -12.182098 7.053105 -8.116452 7.006829 -7.387269 24.145518 -19.169262 -24.897006 -132.304369 -36.503114 132.812776 -0.972893 -1.532587 0.789090 -3.333837 18.149804 -6.325142 -1.601859 -4.134381 5.096983 -0.252922 -6.308834 1.200427 -1.198772 0.164005 -0.561894 -0.176745 8.012130 1.644034 -0.665083 3.499365 -2.220179 1.172010 -4.327217 0.006285 0.352769 0.084869 0.130785
18.652013 90.329639 17.247968 -31.479549 -7.080275 0.260431 0.134941 2.684713 0.159272 -0.196935 1.380064 0.151500 -0.196935 1.380064 0.151500 -0.148037 1.034999 0.114064 -1.594737 27.647250 -0.213549 -2.792555 15.166622 -0.048652 6.298165 5.235544 4.143216 -11.582508 -37.423104 18.353372 79.375863 -53.134715 -57.265088 6.221723 -12.420663 7.563114 -7.654866 6.376279 -6.693396 23.683110 -20.408753 -21.435177 -131.247902 -36.070163 130.898492 -1.113472 -1.462880 0.538774 -3.313813 18.077542 -6.299018 -1.639096 -4.140877 5.114034 -0.265903 -6.309355 1.168001 -1.160651 0.158673 -0.542101 -0.160570 7.954126 1.666417 -0.661062 3.475981 -2.224938 1.192055 -4.341536 0.000625 0.352060 0.091714 0.132834
18.618340 90.333095 17.239968 -31.545935 -7.031065 0.228513 -0.089170 2.833883 -0.043879 -0.303407 1.455774 0.045625 -0.303407 1.455774 0.045625 -0.227652 1.091808 0.034940 -1.125810 27.409604 0.097908 -2.024301 14.725410 0.411478 6.488630 4.742420 3.948449 -8.728587 -36.696283 14.607944 81.746395 -52.716977 -59.233372 6.046964 -12.681974 8.058822 -7.044413 5.754650 -5.817888 22.718971 -21.085376 -17.817078 -129.997884 -35.740387 128.616810 -1.254161 -1.503870 0.400769 -3.261076 18.023774 -6.234705 -1.671091 -4.131219 5.119386 -0.247131 -6.285103 1.132752 -1.135353 0.135121 -0.525266 -0.179855 7.912176 1.763080 -0.630585 3.496662 -2.295917 1.202517 -4.361894 -0.011856 0.380558 0.084000 0.151242
18.581359 90.340197 17.214479 -31.658309 -6.975377 0.186024 -0.270714 2.929954 -0.239596 -0.378760 1.496119 -0.052583 -0.378760 1.496119 -0.052583 -0.283925 1.122123 -0.038507 -0.720759 27.230911 0.392495 -1.366839 14.393107 0.852307 6.575892 4.423793 3.786222 -5.948663 -36.116170 11.053744 83.041079 -52.047989 -59.857395 5.899151 -13.012763 8.478837 -6.412318 5.458024 -4.972887 21.297995 -21.962324 -14.316365 -128.068283 -35.861425 125.660124 -1.356077 -1.481649 0.118054 -3.173972 17.937862 -6.149506 -1.688691 -4.095448 5.130113 -0.238136 -6.261662 1.080792 -1.115291 0.111709 -0.506849 -0.208907 7.838106 1.890402 -0.622049 3.557169 -2.398697 1.256249 -4.386453 -0.022336 0.411050 0.064687 0.172340
18.546825 90.347251 17.170526 -31.802713 -6.912123 0.127056 -0.428874 3.024164 -0.386425 -0.432417 1.525874 -0.125610 -0.432417 1.525874 -0.125610 -0.323980 1.144495 -0.093122 -0.440450 27.059833 0.589929 -0.911381 14.074433 1.145451 6.618498 4.235896 3.579832 -3.201171 -35.582172 7.482137 83.524420 -51.433377 -59.587937 5.737648 -13.317719 8.924827 -5.832356 5.244623 -4.256103 19.676193 -23.442159 -10.766291 -125.014487 -37.072418 121.331687 -1.404434 -1.418161 -0.113239 -3.038628 17.820066 -6.010149 -1.680449 -4.036174 5.107461 -0.301104 -6.253246 1.007445 -1.055688 0.103056 -0.465647 -0.304114 7.721870 2.012603 -0.565096 3.677734 -2.474649 1.352242 -4.441133 -0.037883 0.408231 0.052195 0.178435
18.481658 90.357884 17.136915 -31.716075 -7.083562 -0.047279 -0.846507 3.196504 -0.383404 -0.488350 1.484974 -0.158821 -0.488350 1.484974 -0.158821 -0.365856 1.113858 -0.117923 -0.301555 27.015837 0.623575 -0.671642 13.991399 1.175767 6.686365 4.372664 3.234044 -0.471591 -35.056709 3.877784 83.018898 -50.862949 -58.145443 5.662631 -13.692712 9.211445 -5.243952 5.122587 -3.687043 17.910838 -24.986996 -6.899415 -120.920982 -39.524398 115.605390 -1.426947 -1.265539 -0.169242 -3.096305 17.973183 -5.687833 -1.663502 -3.957819 5.079843 -0.760927 -6.250698 0.693636 -0.584402 0.052354 -0.240553 -0.671963 7.830489 2.210933 -0.419508 3.818281 -2.530574 1.478547 -4.536329 -0.057717 0.370768 0.075719 0.167232
18.457634 90.362709 17.069392 -31.890033 -7.054458 -0.116952 -1.079398 3.069081 -0.384830 -0.564532 1.413597 -0.153144 -0.564532 1.413597 -0.153144 -0.423023 1.060341 -0.113547 -0.266904 27.046127 0.491664 -0.581257 14.046019 0.933176 6.865327 4.513619 2.777411 2.419245 -34.245384 0.261289 82.236980 -50.326717 -56.531492 5.627425 -14.139556 9.622405 -4.587208 5.057143 -3.240391 15.768538 -26.176309 -2.731292 -115.384617 -42.710958 108.897441 -1.393353 -1.033265 -0.389228 -2.949223 17.852185 -5.544306 -1.644268 -3.871687 5.059120 -0.805245 -6.243221 0.616158 -0.524194 0.051851 -0.202471 -0.791556 7.722009 2.321224 -0.238790 3.973587 -2.564326 1.541647 -4.598940 -0.080290 0.344278 0.071912 0.156887
18.443551 90.368244 16.999274 -32.116880 -7.062302 -0.193603 -1.255707 2.946341 -0.341138 -0.623544 1.349111 -0.126605 -0.623544 1.349111 -0.126605 -0.467357 1.011964 -0.093573 -0.319712 27.084980 0.273458 -0.628147 14.116882 0.555710 7.091282 4.588896 2.369987 5.586846 -33.031146 -3.468303 81.334210 -49.876524 -55.044140 5.638792 -14.524967 10.032269 -4.118451 5.182903 -2.873074 13.200721 -26.848555 1.450468 -107.964960 -45.844917 101.175274 -1.238454 -0.814355 -0.675110 -2.832607 17.763636 -5.413444 -1.572467 -3.799244 5.035817 -0.815970 -6.237250 0.554643 -0.480870 0.065663 -0.179208 -0.835951 7.650480 2.406030 -0.060483 4.125820 -2.546289 1.618114 -4.661389 -0.106242 0.307672 0.073268 0.139307
18.439083 90.375035 16.933108 -32.370368 -7.096499 -0.283151 -1.413184 2.743075 -0.297972 -0.668764 1.246533 -0.098710 -0.668764 1.246533 -0.098710 -0.501352 0.935009 -0.072665 -0.379296 27.197029 0.041350 -0.684171 14.323791 0.154593 7.323001 4.617800 2.083328 9.073222 -31.348521 -7.383989 79.387599 -49.499654 -52.601917 5.697541 -14.834195 10.158205 -3.775722 5.415624 -2.542439 10.327454 -26.692758 5.626676 -98.864273 -48.578629 92.388434 -0.961182 -0.536732 -0.938161 -2.752048 17.699313 -5.297657 -1.461004 -3.737667 5.027481 -0.816051 -6.218624 0.491126 -0.425370 0.076870 -0.155375 -0.817611 7.619336 2.497069 0.104341 4.250421 -2.512988 1.701088 -4.711132 -0.128650 0.265223 0.076615 0.117898
